<?xml version="1.0" encoding="UTF-8" standalone="no"?>
<!-- Created with Inkscape (http://www.inkscape.org/) -->

<svg
   xmlns:dc="http://purl.org/dc/elements/1.1/"
   xmlns:cc="http://creativecommons.org/ns#"
   xmlns:rdf="http://www.w3.org/1999/02/22-rdf-syntax-ns#"
   xmlns:svg="http://www.w3.org/2000/svg"
   xmlns="http://www.w3.org/2000/svg"
   xmlns:sodipodi="http://sodipodi.sourceforge.net/DTD/sodipodi-0.dtd"
   xmlns:inkscape="http://www.inkscape.org/namespaces/inkscape"
   version="1.1"
   id="svg3713"
   width="682.66669"
   height="682.66669"
   viewBox="0 0 682.66669 682.66669"
   sodipodi:docname="about_icon.svg"
   inkscape:version="0.92.3 (2405546, 2018-03-11)">
  <metadata
     id="metadata3719">
    <rdf:RDF>
      <cc:Work
         rdf:about="">
        <dc:format>image/svg+xml</dc:format>
        <dc:type
           rdf:resource="http://purl.org/dc/dcmitype/StillImage" />
        <dc:title></dc:title>
      </cc:Work>
    </rdf:RDF>
  </metadata>
  <defs
     id="defs3717" />
  <sodipodi:namedview
     pagecolor="#ffffff"
     bordercolor="#666666"
     borderopacity="1"
     objecttolerance="10"
     gridtolerance="10"
     guidetolerance="10"
     inkscape:pageopacity="0"
     inkscape:pageshadow="2"
     inkscape:window-width="1368"
     inkscape:window-height="849"
     id="namedview3715"
     showgrid="false"
     inkscape:zoom="0.9550781"
     inkscape:cx="222.49489"
     inkscape:cy="341.33334"
     inkscape:window-x="-8"
     inkscape:window-y="-8"
     inkscape:window-maximized="1"
     inkscape:current-layer="layer3" />
  <g
     inkscape:groupmode="layer"
     id="layer2"
     inkscape:label="icon"
     style="display:inline">
    <path
       style="fill:#000000;stroke-width:1.33333337"
       d="M 304.66393,639.35306 C 188.59606,624.58765 92.341378,545.36881 55.960195,434.66668 35.406524,372.12515 36.718783,298.98997 59.497685,237.51433 89.803922,155.72395 155.72395,89.803922 237.51433,59.497685 c 39.7606,-14.732711 89.729,-21.13173 132.48568,-16.96629 90.79534,8.845461 171.18901,57.265342 221.92868,133.664255 23.68522,35.66293 39.45116,76.60945 46.38583,120.47103 3.23529,20.46312 3.23529,68.87021 0,89.33333 -13.51386,85.47475 -60.14722,158.31224 -131.84348,205.92868 -35.25722,23.41578 -76.35668,39.34102 -119.13769,46.16356 -18.59096,2.96481 -63.84886,3.65505 -82.66942,1.26081 z m 71.16496,-54.749 c 108.59875,-15.80669 192.96848,-100.17642 208.77517,-208.77517 2.65299,-18.22712 2.65299,-50.76397 0,-68.99109 C 568.79737,198.23905 484.42764,113.86932 375.82889,98.062629 357.52763,95.398855 325.0439,95.407485 306.8378,98.080958 197.97882,114.06633 114.06633,197.97882 98.080958,306.8378 c -2.673473,18.2061 -2.682103,50.68983 -0.01833,68.99109 15.707712,107.91873 99.551862,192.32308 207.270712,208.6556 17.34242,2.62949 52.83774,2.68969 70.49555,0.1196 z m -53.95327,-87.3116 c -20.25749,-4.01626 -32.16194,-18.46608 -33.55058,-40.7243 -0.9045,-14.49786 0.96149,-26.29597 11.05561,-69.90148 10.65796,-46.04132 11.76775,-52.62478 10.96905,-65.07026 -0.60042,-9.35597 -0.96322,-10.36334 -5.046,-14.0113 -4.32788,-3.86696 -4.59122,-3.91959 -16.27929,-3.25316 -13.21609,0.75354 -13.05243,0.86112 -14.99453,-9.85627 l -0.81104,-4.47568 14.42509,-6.28437 c 19.53147,-8.50898 29.15951,-10.83279 41.84097,-10.09867 17.29777,1.00136 29.59449,8.99604 36.37423,23.64863 2.4513,5.2978 2.79506,8.4364 2.70908,24.73441 -0.0964,18.27045 -0.29942,19.52986 -9.56656,59.33334 -10.58861,45.47941 -13.01572,59.68556 -11.9543,69.96977 0.94314,9.13818 3.02276,12.24851 9.9612,14.89832 5.55552,2.12167 16.29313,2.01067 21.97293,-0.22714 2.53941,-1.00052 3.96201,1.6155 5.51991,10.15066 l 0.8746,4.7916 -15.02132,7.004 c -20.83239,9.71354 -33.9577,12.25091 -48.47905,9.3719 z m 11.94171,-247.7756 c -25.93219,-12.15231 -32.60805,-46.09213 -13.02876,-66.23775 8.43195,-8.67584 16.14936,-11.89061 28.54478,-11.89061 11.9054,0 19.37248,2.95687 27.18293,10.76407 8.25912,8.25568 12.16353,17.90636 12.07551,29.84744 -0.11574,15.69724 -7.06015,27.86445 -20.34828,35.65181 -8.26423,4.84316 -26.01855,5.805 -34.42618,1.86504 z"
       id="path3725"
       inkscape:connector-curvature="0" />
  </g>
  <g
     inkscape:groupmode="layer"
     id="layer3"
     inkscape:label="bg" />
</svg>
